<svg width="268" height="199" viewBox="0 0 268 199" fill="none" xmlns="http://www.w3.org/2000/svg">
<g clip-path="url(#clip0_233_1703)">
<path d="M15.6391 28.6615H0.025075L1.60126 20.8253H28.421L29.0613 21.462C29.0613 24.9148 20.3922 48.5701 14.0876 65.5158C11.2554 73.205 10.1471 77.1231 10.1471 80.4045C10.1471 84.4696 12.9793 88.2406 19.284 88.2406C23.0767 88.2406 27.3127 84.1757 35.6862 72.5684L38.8385 74.1355L28.4456 88.2406C23.3969 94.9748 20.5647 97.644 17.4123 99.2113H14.26C7.95524 99.2113 2.58636 94.1912 2.58636 86.9917C2.58636 84.7878 3.0543 81.5065 3.84238 78.519L15.6391 28.6615Z" fill="#111111"/>
<path d="M102.968 58.7572C104.545 52.9536 106.589 48.5701 106.589 42.1299C106.589 34.612 100.924 28.6615 92.7232 28.6615C83.1184 28.6615 77.4292 34.9304 67.5042 60.006L52.0626 99.1867H42.6056L59.9436 28.6615H35.5373L37.1135 20.8253H70.3611L71.0014 21.462C71.0014 24.5964 56.1754 68.479 55.2396 71.0011H57.136L66.2729 50.6272C76.0255 28.8083 86.7386 19.2581 100.284 19.2581C112.573 19.2581 117.942 27.731 117.942 34.9304C117.942 43.0848 114.937 49.1824 110.209 60.9611C104.84 74.1357 103.756 76.8049 103.756 80.4045C103.756 84.4696 105.012 88.2406 111.317 88.2406C115.11 88.2406 119.346 84.1757 127.719 72.5684L130.872 74.1355L120.479 88.2406C115.43 94.9748 112.598 97.644 109.445 99.2113H106.293C99.9884 99.2113 96.1956 94.1912 96.1956 86.9917C96.1956 84.7878 96.6636 81.5065 97.4517 78.519L102.968 58.7572Z" fill="#111111"/>
<path d="M13.0774 193.345C12.1415 193.345 11.3534 193.662 10.5653 194.445L5.8368 199H5.19647L0 167.632L3.15235 166.064C3.62029 167.632 10.7131 194.274 36.8925 194.274C47.9258 194.274 52.6543 189.573 52.6543 181.737C52.6543 161.363 11.6736 166.064 11.6736 139.422C11.6736 125.316 24.283 117.48 36.2768 117.48C48.8862 117.48 51.7184 123.112 55.8313 123.112C56.7671 123.112 57.5552 122.794 58.3433 122.01L63.0718 117.456H63.7121L68.9086 148.8L65.7563 150.368C65.2883 148.8 57.4075 122.157 37.853 122.157C29.0363 122.157 22.7068 126.859 22.7068 136.263C22.7068 156.636 62.1113 153.502 62.1113 177.011C62.1113 192.07 49.5018 198.952 36.2522 198.952C21.5986 198.952 17.1656 193.319 13.0774 193.319V193.345Z" fill="#111111"/>
<path d="M92.8477 126.883H77.2337L78.8098 119.046H105.605L106.245 119.683C106.245 123.136 97.5762 146.791 91.2715 163.737C88.4394 171.426 87.3311 175.345 87.3311 178.625C87.3311 182.69 90.1632 186.461 96.468 186.461C100.261 186.461 104.497 182.396 112.87 170.79L116.022 172.356L105.63 186.461C100.581 193.195 97.7486 195.866 94.5963 197.432H91.444C85.1393 197.432 79.7703 192.412 79.7703 185.213C79.7703 183.009 80.2382 179.727 81.0263 176.739L92.8477 126.883Z" fill="#111111"/>
<path d="M165.844 171.695L171.828 161.338L174.98 162.904L168.996 173.263C160.475 187.834 150.229 198.976 138.728 198.976C134.936 198.976 124.222 196.943 124.222 184.869C124.222 181.735 124.69 177.352 126.439 172.65L142.669 126.883H112.401L114.125 119.047H144.393L148.752 83.0003H159.194L150.057 119.047H175.128L173.404 126.883H148.013L136.832 170.764C136.044 173.9 135.576 176.397 135.576 178.92C135.576 185.826 140.157 189.572 145.033 189.572C151.485 189.572 157.174 186.585 165.844 171.695Z" fill="#111111"/>
<path d="M264.848 170.764L268 172.332L257.607 186.437C252.559 193.171 249.726 195.84 246.574 197.408H243.421C237.117 197.408 233.324 192.388 233.324 185.187C233.324 182.69 233.792 180.487 234.901 177.352L245.934 147.256H244.037L234.901 167.63C225.123 189.424 214.41 198.974 200.84 198.974C188.552 198.974 183.182 190.502 183.182 183.301C183.182 175.147 185.694 169.516 190.128 157.272C193.132 149.117 197.071 139.077 201.629 126.858H167.519L169.243 119.021H209.165L209.805 119.658L197.835 159.476C196.112 165.279 194.536 171.23 194.536 176.102C194.536 183.621 200.373 189.572 208.401 189.572C218.006 189.572 223.695 183.301 233.621 158.227L249.062 119.046H258.519L245.589 172.037C244.949 174.388 244.013 177.988 244.013 181.759C244.013 184.893 245.589 186.461 248.422 186.461C252.214 186.461 256.45 182.396 264.824 170.789L264.848 170.764Z" fill="#111111"/>
<path d="M191.057 35.3065H194.822V33.4513C195.749 35.0609 197.522 35.6611 199.05 35.6611C202.542 35.6611 205.434 32.6601 205.434 27.9675C205.434 23.3568 202.597 20.3012 199.05 20.3012C197.195 20.3012 195.613 21.147 194.822 22.5111V15.5268H191.057V35.3065ZM201.478 27.9948C201.478 30.8594 200.06 32.7692 198.123 32.7692C196.049 32.7692 194.685 30.9686 194.685 27.9675C194.685 25.021 196.049 23.1931 198.123 23.1931C200.06 23.1931 201.478 25.1302 201.478 27.9948ZM210.863 29.0043H221.694C221.857 23.8206 219.02 20.3012 214.491 20.3012C210.154 20.3012 207.125 23.5478 207.125 27.913C207.125 32.1417 209.881 35.6611 214.601 35.6611C218.584 35.6611 220.739 33.233 221.53 31.0504H217.656C216.892 32.3327 215.719 32.7419 214.573 32.7419C212.8 32.7419 211.054 31.5142 210.863 29.0043ZM210.918 26.4124C211.218 23.957 213.046 23.0567 214.464 23.0567C216.047 23.0567 217.793 23.9298 217.874 26.4124H210.918ZM224.639 16.6454V20.6286H222.565V23.2204H224.639V31.3505C224.639 34.2697 225.293 35.3065 228.649 35.3065H231.404V32.6055H230.259C228.922 32.6055 228.403 32.3054 228.403 30.8049V23.2204H231.459V20.6286H228.403V16.6454H224.639ZM238.563 35.6611C240.773 35.6611 242.328 35.0063 243.365 33.4785C243.419 34.1879 243.501 34.8427 243.61 35.3065H247.075C246.802 34.0788 246.639 32.7692 246.639 30.4502C246.639 29.1134 246.693 27.1763 246.693 26.7125C246.693 21.7472 243.856 20.2466 240.364 20.2466C236.599 20.2466 234.198 22.3747 233.925 25.2666H237.445C237.527 23.6569 238.727 22.893 240.173 22.893C241.701 22.893 242.928 23.6842 242.928 25.9486V26.1942C237.172 26.849 233.271 27.8857 233.271 31.3505C233.271 34.0242 235.753 35.6611 238.563 35.6611ZM243.037 28.595V29.6863C243.037 31.8143 242.028 33.0966 239.682 33.0966C237.99 33.0966 237.145 32.2236 237.145 31.1596C237.145 29.5226 238.836 29.0315 243.037 28.595Z" fill="black"/>
<path d="M195.106 1.60484C181.3 1.60484 170.108 12.7744 170.108 26.5529C170.108 40.3312 181.3 51.5007 195.106 51.5007H214.548V62.5887L227.245 51.5007H241.397C255.203 51.5007 266.395 40.3312 266.395 26.5529C266.395 12.7744 255.203 1.60484 241.397 1.60484H195.106Z" stroke="black" stroke-width="2"/>
</g>
<defs>
<clipPath id="clip0_233_1703">
<rect width="268" height="199" fill="white"/>
</clipPath>
</defs>
</svg>
