<svg width="182" height="218" viewBox="0 0 182 218" fill="none" xmlns="http://www.w3.org/2000/svg">
<path d="M58 51L72.5 51C72.5 41.3859 76.3192 32.1656 83.1174 25.3674C89.9156 18.5692 99.1359 14.75 108.75 14.75C118.364 14.75 127.584 18.5692 134.383 25.3674C141.181 32.1656 145 41.3859 145 51L159.5 51C159.5 37.5403 154.153 24.6318 144.636 15.1143C135.118 5.59686 122.21 0.250001 108.75 0.249999C95.2903 0.249998 82.3818 5.59686 72.8643 15.1143C63.3469 24.6318 58 37.5403 58 51Z" fill="white"/>
<path d="M2.34984e-05 123.5L1.96955e-05 167C0.0191988 180.454 5.37221 193.351 14.8855 202.864C24.3988 212.378 37.2962 217.731 50.75 217.75L87 217.75C97.98 217.759 108.577 213.716 116.761 206.396L174.848 153.413C178.731 149.549 181.013 144.362 181.236 138.889C181.46 133.415 179.609 128.059 176.054 123.891C172.499 119.723 167.502 117.051 162.062 116.408C156.621 115.766 151.139 117.201 146.711 120.426L146.704 120.419L130.5 131.511L130.5 51C130.5 45.2315 128.209 39.6993 124.13 35.6204C120.051 31.5415 114.519 29.25 108.75 29.25C102.982 29.25 97.4494 31.5415 93.3705 35.6204C89.2915 39.6993 87 45.2315 87 51L87 88.584C82.3724 86.8631 77.2909 86.802 72.6233 88.4112C67.9556 90.0204 63.9914 93.2001 61.4075 97.4072C58.1696 95.5247 54.4954 94.5224 50.75 94.5C47.0844 94.5102 43.4808 95.4467 40.274 97.2224C37.0673 98.9982 34.3613 101.556 32.4075 104.657C29.1696 102.775 25.4954 101.772 21.75 101.75C15.9833 101.756 10.4545 104.049 6.37681 108.127C2.29914 112.204 0.00577657 117.733 2.34984e-05 123.5ZM14.5 123.5C14.5 121.577 15.2638 119.733 16.6235 118.373C17.9831 117.014 19.8272 116.25 21.75 116.25C23.6728 116.25 25.5169 117.014 26.8765 118.373C28.2362 119.733 29 121.577 29 123.5L29 130.75L43.5 130.75L43.5 116.25C43.5 114.327 44.2638 112.483 45.6235 111.123C46.9831 109.764 48.8272 109 50.75 109C52.6728 109 54.5169 109.764 55.8766 111.123C57.2362 112.483 58 114.327 58 116.25L58 130.75L72.5 130.75L72.5 109C72.5 107.077 73.2639 105.233 74.6235 103.873C75.9831 102.514 77.8272 101.75 79.75 101.75C81.6729 101.75 83.5169 102.514 84.8766 103.873C86.2362 105.233 87 107.077 87 109L87 130.75L101.5 130.75L101.5 51C101.5 49.0772 102.264 47.2331 103.624 45.8735C104.983 44.5138 106.827 43.75 108.75 43.75C110.673 43.75 112.517 44.5138 113.877 45.8735C115.236 47.2331 116 49.0772 116 51L116 158.989L155.15 132.2C156.617 131.113 158.439 130.62 160.254 130.818C162.068 131.016 163.741 131.891 164.939 133.269C166.136 134.647 166.77 136.425 166.713 138.25C166.657 140.074 165.914 141.81 164.633 143.111L106.996 195.681C101.482 200.567 94.3671 203.26 87 203.25L50.75 203.25C41.1395 203.238 31.9258 199.416 25.1301 192.62C18.3344 185.824 14.5115 176.611 14.5 167L14.5 123.5Z" fill="white"/>
</svg>
